<svg width="118" height="16" viewBox="0 0 118 16" fill="none" xmlns="http://www.w3.org/2000/svg">
<path d="M17.0646 10.2203C17.3001 10.5272 17.4277 10.9029 17.4277 11.2895V16H21.129V9.8142L13.5913 0L10.5718 1.75852L17.0646 10.2203Z" fill="#FC2600"/>
<path d="M11.7787 10.2203C12.0142 10.5272 12.1418 10.9029 12.1418 11.2895V16H15.8431V9.8142L8.3054 0L5.28593 1.75852L11.7787 10.2203Z" fill="#FC2600"/>
<path d="M11.7787 10.2203C12.0142 10.5272 12.1418 10.9029 12.1418 11.2895V16H15.8431V9.8142L8.3054 0L5.28593 1.75852L11.7787 10.2203Z" fill="#FC2600"/>
<path d="M6.49279 10.2203C6.72827 10.5272 6.85587 10.9029 6.85587 11.2895V16H10.5572V9.8142L3.01947 0L0 1.75852L6.49279 10.2203Z" fill="#FC2600"/>
<path d="M22.2828 10.2203C22.5183 10.5272 22.6459 10.9029 22.6459 11.2895V16H26.3472V9.8142L18.8095 0L15.79 1.75852L22.2828 10.2203Z" fill="#FC2600"/>
<path d="M31.8604 14.0682V3.81247H34.0593V7.8219H38.6545V3.81247H40.8394V14.0682H38.6545V9.58042H34.0593V14.0682H31.8604Z" fill="#1E1E1E"/>
<path d="M44.6141 14.2088C43.0354 14.2088 42.0064 13.3366 42.0064 12.0001C42.0064 10.6777 42.8098 9.81958 44.5154 9.55228L46.2492 9.25685C46.9399 9.1443 47.1513 8.84887 47.1513 8.41276C47.1513 7.76562 46.7708 7.39985 45.7981 7.39985C44.7832 7.38578 44.1489 7.8219 44.163 8.70819L42.1755 8.51124C42.3165 6.92153 43.5851 5.85235 45.925 5.85235C48.124 5.85235 49.3644 6.66831 49.3644 8.30021V11.2405C49.3644 12.5207 49.4067 13.632 49.5758 14.0682H47.4051C47.3487 13.8009 47.2923 13.421 47.2782 13.0693C46.813 13.7727 45.77 14.2088 44.6141 14.2088ZM45.4176 12.7458C46.362 12.7458 47.0809 12.2815 47.2218 11.564V10.1853C47.0527 10.3401 46.7426 10.4526 46.2492 10.5511L45.3189 10.7199C44.5013 10.8747 44.1771 11.2545 44.1912 11.7751C44.1912 12.394 44.6141 12.7458 45.4176 12.7458Z" fill="#1E1E1E"/>
<path d="M50.7976 14.0682V2.95431H52.9543V7.11849C53.4336 6.2744 54.3216 5.85235 55.3929 5.85235C57.5495 5.85235 58.9309 7.48426 58.9309 10.0587C58.9309 12.6051 57.5918 14.2088 55.4493 14.2088C54.3216 14.2088 53.3349 13.7165 52.912 12.8583L52.7852 14.0682H50.7976ZM52.9543 10.3964C52.9543 11.7328 53.6732 12.5347 54.8572 12.5347C56.0554 12.5347 56.732 11.6484 56.732 10.0587C56.732 8.42683 56.0695 7.52647 54.8572 7.52647C53.645 7.52647 52.9543 8.35649 52.9543 9.74923V10.3964Z" fill="#1E1E1E"/>
<path d="M59.993 4.92386V2.95431H62.1496V4.92386H59.993ZM59.993 14.0682V5.99304H62.1496V14.0682H59.993Z" fill="#1E1E1E"/>
<path d="M66.517 14.1666C64.9665 14.1666 64.2617 13.6039 64.2617 12.3378V7.5546H63.0917V5.99304H64.2617V3.88281H66.4184V5.99304H67.8843V7.5546H66.4184V11.7469C66.4184 12.3518 66.5593 12.4925 67.1654 12.4925C67.4192 12.4925 67.6729 12.4644 67.842 12.394V14.0119C67.4473 14.1104 66.9117 14.1666 66.517 14.1666Z" fill="#1E1E1E"/>
<path d="M71.1814 14.2088C69.6027 14.2088 68.5737 13.3366 68.5737 12.0001C68.5737 10.6777 69.3772 9.81958 71.0828 9.55228L72.8165 9.25685C73.5072 9.1443 73.7187 8.84887 73.7187 8.41276C73.7187 7.76562 73.3381 7.39985 72.3655 7.39985C71.3506 7.38578 70.7163 7.8219 70.7304 8.70819L68.7428 8.51124C68.8838 6.92153 70.1524 5.85235 72.4923 5.85235C74.6913 5.85235 75.9317 6.66831 75.9317 8.30021V11.2405C75.9317 12.5207 75.974 13.632 76.1431 14.0682H73.9724C73.916 13.8009 73.8596 13.421 73.8455 13.0693C73.3804 13.7727 72.3373 14.2088 71.1814 14.2088ZM71.9849 12.7458C72.9293 12.7458 73.6482 12.2815 73.7891 11.564V10.1853C73.62 10.3401 73.3099 10.4526 72.8165 10.5511L71.8862 10.7199C71.0687 10.8747 70.7445 11.2545 70.7585 11.7751C70.7585 12.394 71.1814 12.7458 71.9849 12.7458Z" fill="#1E1E1E"/>
<path d="M78.0694 10.1291V8.82074H83.0171V10.1291H78.0694Z" fill="#1E1E1E"/>
<path d="M87.3922 14.2088C85.0805 14.2088 83.7554 12.9427 83.6286 11.0576L85.2073 10.8325C85.2637 12.169 86.0954 12.9005 87.4204 12.9005C88.7454 12.9005 89.5347 12.169 89.5347 11.0857C89.5347 9.96026 88.6749 9.4116 87.5895 9.4116H86.3632V8.20174H87.3358C88.5057 8.20174 89.281 7.56867 89.281 6.59797C89.281 5.62726 88.5339 4.9942 87.4345 4.9942C86.3068 4.9942 85.5033 5.68354 85.4328 6.8934L83.981 6.72458C84.0937 4.88165 85.5033 3.68586 87.519 3.68586C89.3374 3.68586 90.8738 4.65656 90.8738 6.37288C90.8738 7.49833 90.1831 8.37056 89.0837 8.72226C90.3805 9.03176 91.1558 9.96026 91.1558 11.2405C91.1558 12.9849 89.6757 14.2088 87.3922 14.2088Z" fill="#1E1E1E"/>
<path d="M96.4466 14.1948C93.698 14.1948 92.4857 12.0986 92.4857 9.01769C92.4857 5.43031 94.0926 3.67179 96.5171 3.67179C98.4483 3.67179 99.7874 4.6847 100.013 6.40101L98.4905 6.55576C98.3214 5.51472 97.5884 4.9942 96.5312 4.9942C94.5296 4.9942 93.9376 6.96374 94.0363 9.39753C94.4168 8.27208 95.5727 7.66715 96.7849 7.66715C98.6315 7.66715 100.126 8.87701 100.126 10.8747C100.126 12.8583 98.6456 14.1948 96.4466 14.1948ZM96.4748 12.8583C97.6871 12.8583 98.5046 12.0564 98.5046 10.8606C98.5046 9.66483 97.7012 8.87701 96.4748 8.87701C95.2626 8.87701 94.4309 9.67889 94.4309 10.8747C94.4309 12.0564 95.2485 12.8583 96.4748 12.8583Z" fill="#1E1E1E"/>
<path d="M105.216 14.1807C102.819 14.1807 101.382 12.2112 101.382 8.91921C101.382 5.64133 102.819 3.67179 105.216 3.67179C107.584 3.67179 109.021 5.64133 109.021 8.91921C109.021 12.2112 107.584 14.1807 105.216 14.1807ZM105.201 12.8442C106.639 12.8442 107.372 11.5078 107.372 8.91921C107.372 6.34474 106.639 5.02233 105.201 5.02233C103.764 5.02233 103.031 6.33067 103.031 8.91921C103.031 11.5218 103.764 12.8442 105.201 12.8442Z" fill="#1E1E1E"/>
<path d="M114.143 2.04832C116.325 2.04832 118 3.5086 118 5.71167C118 7.90631 116.325 9.37502 114.143 9.37502C111.953 9.37502 110.278 7.90631 110.278 5.71167C110.278 3.5086 111.953 2.04832 114.143 2.04832ZM114.143 8.61534C115.835 8.61534 117.146 7.52647 117.146 5.71167C117.146 3.95597 115.911 2.79956 114.143 2.79956C112.452 2.79956 111.133 3.89688 111.141 5.71167C111.141 7.4505 112.376 8.61534 114.143 8.61534ZM115.776 7.09598C115.776 7.2648 115.818 7.35765 115.903 7.38297V7.52647H114.896C114.845 7.4505 114.828 7.307 114.828 7.15507V6.64017C114.828 6.3785 114.71 6.1928 114.38 6.1928H113.56V7.52647H112.621V3.86312H114.532C115.344 3.86312 115.86 4.24296 115.869 4.90979C115.869 5.3656 115.59 5.70323 115.184 5.8214C115.64 5.93114 115.776 6.13372 115.776 6.53888V7.09598ZM114.406 5.46689C114.744 5.46689 114.913 5.29807 114.913 5.0364C114.913 4.74941 114.71 4.61436 114.406 4.61436H113.56V5.46689H114.406Z" fill="#1E1E1E"/>
</svg>
