<svg width="134" height="19" viewBox="0 0 134 19" fill="none" xmlns="http://www.w3.org/2000/svg">
<path d="M19.3698 11.6237C19.6371 11.9727 19.782 12.4001 19.782 12.8397V18.1971H23.9833V11.1619L15.4273 0L11.9999 2L19.3698 11.6237Z" fill="#FC2600"/>
<path d="M13.3699 11.6237C13.6372 11.9727 13.782 12.4001 13.782 12.8397V18.1971H17.9833V11.1619L9.42736 0L6 2L13.3699 11.6237Z" fill="#FC2600"/>
<path d="M13.3699 11.6237C13.6372 11.9727 13.782 12.4001 13.782 12.8397V18.1971H17.9833V11.1619L9.42736 0L6 2L13.3699 11.6237Z" fill="#FC2600"/>
<path d="M7.36989 11.6237C7.63717 11.9727 7.78202 12.4001 7.78202 12.8397V18.1971H11.9833V11.1619L3.42736 0L0 2L7.36989 11.6237Z" fill="#FC2600"/>
<path d="M25.293 11.6237C25.5603 11.9727 25.7051 12.4001 25.7051 12.8397V18.1971H29.9064V11.1619L21.3505 0L17.9231 2L25.293 11.6237Z" fill="#FC2600"/>
<path d="M36.1643 16V4.336H38.6603V8.896H43.8763V4.336H46.3563V16H43.8763V10.896H38.6603V16H36.1643Z" fill="#1E1E1E"/>
<path d="M50.6409 16.16C48.8489 16.16 47.6809 15.168 47.6809 13.648C47.6809 12.144 48.5929 11.168 50.5289 10.864L52.4969 10.528C53.2809 10.4 53.5209 10.064 53.5209 9.568C53.5209 8.832 53.0889 8.416 51.9849 8.416C50.8329 8.4 50.1129 8.896 50.1289 9.904L47.8729 9.68C48.0329 7.872 49.4729 6.656 52.1289 6.656C54.6249 6.656 56.0329 7.584 56.0329 9.44V12.784C56.0329 14.24 56.0809 15.504 56.2729 16H53.8089C53.7449 15.696 53.6809 15.264 53.6649 14.864C53.1369 15.664 51.9529 16.16 50.6409 16.16ZM51.5529 14.496C52.6249 14.496 53.4409 13.968 53.6009 13.152V11.584C53.4089 11.76 53.0569 11.888 52.4969 12L51.4409 12.192C50.5129 12.368 50.1449 12.8 50.1609 13.392C50.1609 14.096 50.6409 14.496 51.5529 14.496Z" fill="#1E1E1E"/>
<path d="M57.6598 16V3.36H60.1078V8.096C60.6518 7.136 61.6598 6.656 62.8758 6.656C65.3238 6.656 66.8918 8.512 66.8918 11.44C66.8918 14.336 65.3718 16.16 62.9398 16.16C61.6598 16.16 60.5398 15.6 60.0598 14.624L59.9158 16H57.6598ZM60.1078 11.824C60.1078 13.344 60.9238 14.256 62.2678 14.256C63.6278 14.256 64.3958 13.248 64.3958 11.44C64.3958 9.584 63.6438 8.56 62.2678 8.56C60.8918 8.56 60.1078 9.504 60.1078 11.088V11.824Z" fill="#1E1E1E"/>
<path d="M68.0973 5.6V3.36H70.5453V5.6H68.0973ZM68.0973 16V6.816H70.5453V16H68.0973Z" fill="#1E1E1E"/>
<path d="M75.5027 16.112C73.7427 16.112 72.9427 15.472 72.9427 14.032V8.592H71.6147V6.816H72.9427V4.416H75.3907V6.816H77.0547V8.592H75.3907V13.36C75.3907 14.048 75.5507 14.208 76.2387 14.208C76.5267 14.208 76.8147 14.176 77.0067 14.096V15.936C76.5587 16.048 75.9507 16.112 75.5027 16.112Z" fill="#1E1E1E"/>
<path d="M80.7972 16.16C79.0052 16.16 77.8372 15.168 77.8372 13.648C77.8372 12.144 78.7492 11.168 80.6852 10.864L82.6532 10.528C83.4372 10.4 83.6772 10.064 83.6772 9.568C83.6772 8.832 83.2452 8.416 82.1412 8.416C80.9892 8.4 80.2692 8.896 80.2852 9.904L78.0292 9.68C78.1892 7.872 79.6292 6.656 82.2852 6.656C84.7812 6.656 86.1892 7.584 86.1892 9.44V12.784C86.1892 14.24 86.2372 15.504 86.4292 16H83.9652C83.9012 15.696 83.8372 15.264 83.8212 14.864C83.2932 15.664 82.1092 16.16 80.7972 16.16ZM81.7092 14.496C82.7812 14.496 83.5972 13.968 83.7572 13.152V11.584C83.5652 11.76 83.2132 11.888 82.6532 12L81.5972 12.192C80.6692 12.368 80.3012 12.8 80.3172 13.392C80.3172 14.096 80.7972 14.496 81.7092 14.496Z" fill="#1E1E1E"/>
<path d="M88.6157 11.52V10.032H94.2317V11.52H88.6157Z" fill="#1E1E1E"/>
<path d="M99.1978 16.16C96.5738 16.16 95.0698 14.72 94.9258 12.576L96.7178 12.32C96.7818 13.84 97.7258 14.672 99.2298 14.672C100.734 14.672 101.63 13.84 101.63 12.608C101.63 11.328 100.654 10.704 99.4218 10.704H98.0298V9.328H99.1338C100.462 9.328 101.342 8.608 101.342 7.504C101.342 6.4 100.494 5.68 99.2458 5.68C97.9658 5.68 97.0538 6.464 96.9738 7.84L95.3258 7.648C95.4538 5.552 97.0538 4.192 99.3418 4.192C101.406 4.192 103.15 5.296 103.15 7.248C103.15 8.528 102.366 9.52 101.118 9.92C102.59 10.272 103.47 11.328 103.47 12.784C103.47 14.768 101.79 16.16 99.1978 16.16Z" fill="#1E1E1E"/>
<path d="M109.475 16.144C106.355 16.144 104.979 13.76 104.979 10.256C104.979 6.176 106.803 4.176 109.555 4.176C111.747 4.176 113.267 5.328 113.523 7.28L111.795 7.456C111.603 6.272 110.771 5.68 109.571 5.68C107.299 5.68 106.627 7.92 106.739 10.688C107.171 9.408 108.483 8.72 109.859 8.72C111.955 8.72 113.651 10.096 113.651 12.368C113.651 14.624 111.971 16.144 109.475 16.144ZM109.507 14.624C110.883 14.624 111.811 13.712 111.811 12.352C111.811 10.992 110.899 10.096 109.507 10.096C108.131 10.096 107.187 11.008 107.187 12.368C107.187 13.712 108.115 14.624 109.507 14.624Z" fill="#1E1E1E"/>
<path d="M119.429 16.128C116.709 16.128 115.077 13.888 115.077 10.144C115.077 6.416 116.709 4.176 119.429 4.176C122.117 4.176 123.749 6.416 123.749 10.144C123.749 13.888 122.117 16.128 119.429 16.128ZM119.413 14.608C121.045 14.608 121.877 13.088 121.877 10.144C121.877 7.216 121.045 5.712 119.413 5.712C117.781 5.712 116.949 7.2 116.949 10.144C116.949 13.104 117.781 14.608 119.413 14.608Z" fill="#1E1E1E"/>
<path d="M129.563 2.3296C132.04 2.3296 133.94 3.9904 133.94 6.496C133.94 8.992 132.04 10.6624 129.563 10.6624C127.076 10.6624 125.176 8.992 125.176 6.496C125.176 3.9904 127.076 2.3296 129.563 2.3296ZM129.563 9.7984C131.483 9.7984 132.971 8.56 132.971 6.496C132.971 4.4992 131.569 3.184 129.563 3.184C127.643 3.184 126.145 4.432 126.155 6.496C126.155 8.4736 127.556 9.7984 129.563 9.7984ZM131.416 8.0704C131.416 8.2624 131.464 8.368 131.56 8.3968V8.56H130.417C130.36 8.4736 130.34 8.3104 130.34 8.1376V7.552C130.34 7.2544 130.206 7.0432 129.832 7.0432H128.9V8.56H127.835V4.3936H130.004C130.926 4.3936 131.512 4.8256 131.521 5.584C131.521 6.1024 131.204 6.4864 130.744 6.6208C131.262 6.7456 131.416 6.976 131.416 7.4368V8.0704ZM129.86 6.2176C130.244 6.2176 130.436 6.0256 130.436 5.728C130.436 5.4016 130.206 5.248 129.86 5.248H128.9V6.2176H129.86Z" fill="#1E1E1E"/>
</svg>
